<svg width="210" height="39" viewBox="0 0 210 39" xmlns="http://www.w3.org/2000/svg" xmlns:xlink="http://www.w3.org/1999/xlink"><title>Course Hero Logo / White</title><desc>Created with Sketch.</desc><g id="9-3" stroke="none" stroke-width="1" fill="none" fill-rule="evenodd"><g id="Homepage-redesign-2019" transform="translate(-42.000000, -31.000000)" fill="#fff"><g id="header" transform="translate(0.000000, 16.000000)"><g id="Course-Hero-Logo-/-White" transform="translate(42.000000, 15.000000)"><path d="M67.1470551 23.5082195H68.507161L67.9425636 28.2786613c-2.0532839.9390094-4.4660594 1.5567336-7.7513136 1.5567336-6.77783899999999.0-10.5507203-4.4238822-10.5507203-9.5147523.0-6.3027577 4.7490254-10.2571352 10.7553813-10.2571352 3.49125.0 5.7247246.914591699999999 7.0590254 1.7550736L67.609322 16.069826H66.2741314c-1.12875-3.1635877-3.0801483-4.3750469-6.1349365-4.3750469-4.9541313.0-6.7506991 3.5345649-6.7506991 7.6615797.0 4.5969478 2.2330296 8.8477644 7.3415466 8.8477644 3.67099569999999.0 5.2362076-1.5811513 6.4170127-4.6959037" id="Fill-1"/><path d="M81.6748729 23.6076037c0-3.3118072-1.56521189999999-5.8820883-4.3895339-5.8820883C74.8979237 17.7255154 73.820339 19.6776439 73.820339 22.3717269c0 3.3113789 1.5910169 5.88166 4.38864409999999 5.88166 2.38741520000001.0 3.4658898-1.9272825 3.4658898-4.6457832zM70.56 23.2370549c0-4.3502008 3.3626695-7.0939759 7.444322-7.0939759C82.1620551 16.143079 84.9601271 18.9361178 84.9601271 22.7422758c0 4.3497724-3.3880296 7.0931191-7.46968219999999 7.0931191-4.1586229.0-6.9304449-2.792182-6.9304449-6.59834z" id="Fill-2"/><path d="M96.8442585 27.4133333C95.7920339 28.6736278 94.1747669 29.8353949 92.0449576 29.8353949c-2.4643856.0-4.2097881-1.1861847-4.2097881-4.077751V19.2329853C87.8351695 18.3925033 87.4498729 18.0712182 86.2686229 17.9229987L85.8076907 17.8488889V16.7612316L90.27375 16.143079H91.0438983L90.9148729 18.6889424v6.6484605c0 1.70581.9756991 2.3727979 2.3607203 2.3727979C94.7135593 27.7102008 95.8685593 27.0179384 96.8442585 26.30083V19.2329853C96.8442585 18.3925033 96.4589619 18.0712182 95.2781568 17.9229987L94.84125 17.8488889V16.7612316L99.3086441 16.143079H100.052987L99.9239619 18.6889424v7.9340295c0 .8400535.28296610000001 1.0872289 1.3863561 1.1857563L101.978136 27.8584203v1.112075L97.2553602 29.8353949H96.7152331L96.8442585 27.4133333" id="Fill-3"/><path d="M108.374682 20.0237751C109.632013 17.7006693 110.786568 16.143079 112.738411 16.143079 113.354174 16.143079 113.738136 16.2917269 113.994852 16.4896386v2.6443909H113.020487c-1.643072.0-3.028983.321285100000001-4.645805 2.0266666v5.8572423c0 1.2110308.642012999999992 1.285569 2.46394099999999 1.4830522v1.0872289h-7.495487V28.5009906C104.524386 28.3527711 105.294089 28.2289692 105.294089 27.0920482V19.010656L103.471716 18.0463722v-.666988l4.106568-1.2602945H108.502373L108.374682 20.0237751" id="Fill-4"/><path d="M115.354958 28.5502544 115.201017 25.2632932H116.535763C117.02428 27.3640696 118.204195 28.4512985 120.309534 28.4512985c1.693347.0 2.772267-.691834 2.772267-2.0510843.0-1.136921-.847118999999992-1.557162-2.25883500000001-1.9281392L118.974343 23.9533066C116.766674 23.3604284 115.354958 22.396573 115.354958 20.0490495c0-2.4469076 1.92603800000001-3.9059705 4.954576-3.9059705 1.848623.0 3.311059.3958233 4.49186400000001 1.0632396v3.0149398h-1.284025c-.410212000000001-1.9028648-1.514492-2.6936547-3.33642-2.6936547-1.30894000000001.0-2.206779.593306599999998-2.206779 1.779063.0.989129800000001.589956999999998 1.4093708 1.821928 1.7550736l2.002563.5436145C124.262606 22.2483534 125.674322 23.2858902 125.674322 25.7327979c0 2.5951271-2.181864 4.102597-5.39103800000001 4.102597-2.155615.0-3.849852-.543614399999999-4.928326-1.2851405" id="Fill-5"/><path d="M130.243157 20.8891031H136.81322C136.81322 19.1091834 135.735191 17.7255154 133.605826 17.7255154 131.706928 17.7255154 130.499428 19.035502 130.243157 20.8891031zM139.970784 21.4327175V22.1738153h-9.805487c0 3.2376974 1.566101 5.239518 4.80018999999999 5.239518C136.942246 27.4133333 138.328602 26.5235877 139.174831 25.5104685L139.997034 25.8810174C139.380826 27.8087282 137.583814 29.8353949 133.939068 29.8353949 129.832055 29.8353949 127.291144 27.0920482 127.291144 23.4101205c0-4.3502008 2.977373-7.2670415 6.92911000000001-7.2670415 3.77377099999998.0 5.75053 2.2991164 5.75053 5.2896385z" id="Fill-6"/><path d="M163.065445 20.4932798H152.336758v5.9317804c0 1.6059974.872033999999985 1.8784472 2.797628 1.9525569v1.2106024H146.175572V28.3776171C148.101165 28.3035074 148.974089 28.0310576 148.974089 26.4250602V13.4746988c0-1.6064257-.872923999999983-1.8784471-2.798517-1.9525569V10.3111111H155.134386v1.2110308C153.208792 11.5962517 152.336758 11.8682731 152.336758 13.4746988V19.010656h10.728687V13.4746988C163.065445 11.8682731 162.192521 11.5962517 160.267373 11.5221419V10.3111111H169.227076v1.2110308C167.301928 11.5962517 166.429004 11.8682731 166.429004 13.4746988V26.4250602c0 1.6059974.872924000000012 1.8784472 2.79807200000002 1.9525569v1.2106024H160.267373V28.3776171C162.192521 28.3035074 163.065445 28.0310576 163.065445 26.4250602V20.4932798" id="Fill-7"/><path d="M173.117415 20.8891031H179.687924C179.687924 19.1091834 178.609894 17.7255154 176.479195 17.7255154c-1.899788.0-3.105064 1.3099866-3.36178000000001 3.1635877zM182.845042 21.4327175V22.1738153h-9.805487c0 3.2376974 1.56565699999999 5.239518 4.799746 5.239518C179.815614 27.4133333 181.20286 26.5235877 182.049534 25.5104685L182.870847 25.8810174C182.254195 27.8087282 180.457627 29.8353949 176.813326 29.8353949 172.707203 29.8353949 170.165403 27.0920482 170.165403 23.4101205c0-4.3502008 2.976483-7.2670415 6.93000000000001-7.2670415 3.773326.0 5.749639 2.2991164 5.749639 5.2896385z" id="Fill-8"/><path d="M189.318559 20.0237751C190.57589 17.7006693 191.731335 16.143079 193.681843 16.143079 194.297606 16.143079 194.682903 16.2917269 194.938729 16.4896386v2.6443909H193.964364c-1.64307199999999.0-3.028538.321285100000001-4.645805 2.0266666v5.8572423c0 1.2110308.641568000000007 1.285569 2.464831 1.4830522v1.0872289H184.287458V28.5009906C185.467818 28.3527711 186.238411 28.2289692 186.238411 27.0920482V19.010656L184.415148 18.0463722v-.666988L188.522606 16.1190897H189.44714L189.318559 20.0237751" id="Fill-9"/><path d="M206.700064 23.6076037c0-3.3118072-1.56565699999999-5.8820883-4.389534-5.8820883-2.386526.0-3.46544499999999 1.9521285-3.46544499999999 4.6462115.0 3.3113789 1.59146199999998 5.88166 4.38997899999998 5.88166 2.38697000000002.0 3.465-1.9272825 3.465-4.6457832zM195.584746 23.2370549c0-4.3502008 3.363114-7.0939759 7.444322-7.0939759C207.188581 16.143079 209.986208 18.9361178 209.986208 22.7422758c0 4.3497724-3.388475 7.0931191-7.47012699999999 7.0931191C198.357458 29.8353949 195.584746 27.0432129 195.584746 23.2370549z" id="Fill-10"/><path d="M26.9111441 29.5882195l-7.0955085-4.2893708-7.0959534 4.2893708 2.0443856-7.8235073-6.42947034-5.171834L16.6927754 16.0471218l3.1228602-7.48637213 3.1219703 7.48637213L31.2962288 16.5928782l-6.4299152 5.171834 2.0448305 7.8235073zM19.8156356 5.4357162.0.0V31.8757697l19.8156356 6.6784472 19.8147458-6.6784472V0L19.8156356 5.4357162z" id="Fill-12"/></g></g></g></g></svg>